<?xml version="1.0" encoding="UTF-8"?>
<svg width="752pt" height="752pt" version="1.1" viewBox="0 0 752 752" xmlns="http://www.w3.org/2000/svg">
 <path d="m179.8 226.11h392.38c9.8477 0 18.77 4.0195 25.246 10.484 6.4805 6.4805 10.484 15.402 10.484 25.246 0 9.8477-4.0195 18.781-10.484 25.246-6.4805 6.4648-15.402 10.484-25.246 10.484h-392.38c-9.832 0-18.77-4.0195-25.246-10.484-6.4805-6.4805-10.484-15.414-10.484-25.246 0-9.8477 4.0195-18.77 10.484-25.246 6.4805-6.4805 15.414-10.484 25.246-10.484zm0 228.32h392.38c9.8477 0 18.77 4.0195 25.246 10.484 6.4805 6.4805 10.484 15.414 10.484 25.246 0 9.832-4.0195 18.77-10.484 25.246-6.4805 6.4805-15.402 10.484-25.246 10.484h-392.38c-9.832 0-18.77-4.0195-25.246-10.484-6.4805-6.4805-10.484-15.414-10.484-25.246 0-9.8477 4.0195-18.781 10.484-25.246 6.4805-6.4648 15.414-10.484 25.246-10.484zm392.38 21.75h-392.38c-3.8359 0-7.332 1.5781-9.875 4.1211s-4.1211 6.0391-4.1211 9.875c0 3.8359 1.5781 7.332 4.1211 9.875s6.0391 4.1211 9.875 4.1211h392.38c3.8359 0 7.332-1.5781 9.875-4.1211 2.543-2.543 4.1211-6.0391 4.1211-9.875 0-3.8359-1.5781-7.332-4.1211-9.875-2.543-2.543-6.0391-4.1211-9.875-4.1211zm-392.38-135.91h392.38c9.8477 0 18.77 4.0195 25.246 10.484 6.4805 6.4648 10.484 15.402 10.484 25.246 0 9.8477-4.0195 18.781-10.484 25.246-6.4805 6.4805-15.402 10.484-25.246 10.484h-392.38c-9.832 0-18.77-4.0195-25.246-10.484-6.4805-6.4648-10.484-15.402-10.484-25.246 0-9.8477 4.0195-18.781 10.484-25.246 6.4805-6.4805 15.414-10.484 25.246-10.484zm392.38 21.738h-392.38c-3.8359 0-7.332 1.5781-9.875 4.1211-2.543 2.543-4.1211 6.0391-4.1211 9.875 0 3.8359 1.5781 7.332 4.1211 9.875 2.543 2.543 6.0391 4.1211 9.875 4.1211h392.38c3.8359 0 7.332-1.5781 9.875-4.1211 2.543-2.543 4.1211-6.0391 4.1211-9.875 0-3.8359-1.5781-7.332-4.1211-9.875-2.543-2.543-6.0391-4.1211-9.875-4.1211zm0-114.16h-392.38c-3.8359 0-7.332 1.5781-9.875 4.1211-2.543 2.543-4.1211 6.0391-4.1211 9.875 0 3.8359 1.5781 7.332 4.1211 9.875 2.543 2.543 6.0391 4.1211 9.875 4.1211h392.38c3.8359 0 7.332-1.5781 9.875-4.1211 2.543-2.543 4.1211-6.0391 4.1211-9.875 0-3.8359-1.5781-7.332-4.1211-9.875-2.543-2.543-6.0391-4.1211-9.875-4.1211z"/>
</svg>
